/* XPM */
static char *noname[] = {
/* width height ncolors chars_per_pixel */
"24 24 185 2",
/* colors */
"   c #000000",
" . c #D6D6D2",
" X c #6A6A68",
" o c #E4E4E3",
" O c #D2D2CE",
" + c #ADADAD",
" @ c #CECECA",
" # c #DEDEDD",
" $ c #CCCCC8",
" % c #91918E",
" & c #C4C4C0",
" * c #9F9F9F",
" = c #9D9D9D",
" - c #D2D2D1",
" ; c #CCCCCB",
" : c #898989",
" > c #858585",
" , c #EDEDEB",
" < c #EBEBE9",
" 1 c #B4B4B3",
" 2 c #E9E9E7",
" 3 c #E7E7E5",
" 4 c #E5E5E3",
" 5 c #E3E3E1",
" 6 c #E1E1DF",
" 7 c #DFDFDD",
" 8 c #A8A8A7",
" 9 c #A4A4A3",
" 0 c #A2A2A1",
" q c #A0A09F",
" w c #D5D5D3",
" e c #D3D3D1",
" r c #656565",
" t c #949493",
" y c #C9C9C7",
" u c #5D5D5D",
" i c #C7C7C5",
" p c #BDBDBB",
" a c #FEFEFE",
" s c #FCFCFC",
" d c #B5B5B3",
" f c #FAFAFA",
" g c #F8F8F8",
" h c #B1B1AF",
" j c #F4F4F4",
" k c #767675",
" l c #ABABA9",
" z c #E0E0DD",
" x c #747473",
" c c #DEDEDB",
" v c #DCDCD9",
" b c #DADAD7",
" n c #EAEAEA",
" m c #D8D8D5",
" M c #D6D6D3",
" N c #E6E6E6",
" B c #6A6A69",
" V c #9F9F9D",
" C c #D4D4D1",
" Z c #9D9D9B",
" A c #E2E2E2",
" S c #D0D0CD",
" D c #E0E0E0",
" F c #999997",
" G c #CECECB",
" H c #DEDEDE",
" J c #60605F",
" K c #D4D4D4",
" L c #C2C2BF",
" P c #8B8B89",
" I c #C0C0BD",
" U c #D0D0D0",
" Y c #898987",
" T c #BCBCB9",
" R c #CCCCCC",
" E c #858583",
" W c #B8B8B5",
" Q c #FDFDFC",
" ! c #B6B6B3",
" ~ c #FBFBFA",
" ^ c #F9F9F8",
" / c #7D7D7B",
" ( c #F7F7F6",
" ) c #F5F5F4",
" _ c #F3F3F2",
" ` c #F1F1F0",
" ' c #EFEFEE",
" ] c #EDEDEC",
" [ c #B4B4B4",
" { c #E9E9E8",
" } c #E7E7E6",
" | c #E3E3E2",
".  c #D1D1CD",
".. c #CFCFCB",
".X c #CDCDC9",
".o c #A8A8A8",
".O c #A4A4A4",
".+ c #A2A2A2",
".@ c #C3C3BF",
".# c #D1D1D0",
".$ c #CDCDCC",
".% c #C9C9C8",
".& c #4B4B49",
".* c #7C7C79",
".= c #7A7A77",
".- c #747471",
".; c #ECECEA",
".: c #EAEAE8",
".> c #E8E8E6",
"., c #E6E6E4",
".< c #AFAFAE",
".1 c #E4E4E2",
".2 c #E2E2E0",
".3 c #767676",
".4 c #ABABAA",
".5 c #E0E0DE",
".6 c #DEDEDC",
".7 c #CCCCC7",
".8 c #DCDCDA",
".9 c #DADAD8",
".0 c #5E5E5B",
".q c #A3A3A2",
".w c #D8D8D6",
".e c #A1A1A0",
".r c #D6D6D4",
".t c #D2D2D0",
".y c #999998",
".u c #83837F",
".i c #939392",
".p c #C8C8C6",
".a c #8F8F8E",
".s c #BCBCBA",
".d c #BABAB8",
".f c #FFFFFF",
".g c #FDFDFD",
".h c #B6B6B4",
".j c #FBFBFB",
".k c #B4B4B2",
".l c #F9F9F9",
".z c #F7F7F7",
".x c #F5F5F5",
".c c #ACACAA",
".v c #E1E1DE",
".b c #404040",
".n c #AAAAA8",
".m c #EFEFEF",
".M c #DDDDDA",
".N c #DBDBD8",
".B c #6F6F6E",
".V c #D9D9D6",
".C c #A2A2A0",
".Z c #D7D7D4",
".A c #D5D5D2",
".S c #D3D3D0",
".D c #E3E3E3",
".F c #D1D1CE",
".G c #9A9A98",
".H c #CFCFCC",
".J c #636362",
".K c #CDCDCA",
".L c #DDDDDD",
".P c #5D5D5C",
".I c #D7D7D7",
".U c #C5C5C2",
".Y c #C1C1BE",
".T c #D1D1D1",
".R c #848482",
".E c #161616",
".W c #FAFAF9",
".Q c #C3C3C3",
".! c #C1C1C1",
".~ c #F6F6F5",
".^ c #F4F4F3",
"./ c #ADADAA",
".( c #F2F2F1",
".) c #767674",
"._ c #F0F0EF",
".` c #EEEEED",
".' c #727270",
".] c #ECECEB",
".[ c #70706E",
".{ c #A5A5A2",
".} c #EAEAE9",
".| c #A1A19E",
"X  c None",
/* pixels */
"X X X X X X X X X X X X X X X X X X X X X X X X ",
"X X                                     X X X X ",
"X X   .f.f.f.f.f.f.f.f.f.f.f.f.f.f.f D.!  X X X ",
"X X   .f.f.f.f.f.f.f.f.f.f.f.f.g.j.W.Q.j.o  X X ",
"X X   .f j K n n H.f.f.f.f.g s f ^ ( +.3 u.b  X ",
"X X   .f.f.f.f.f.f.f.f a s ~.l.z.~ j A >.&.E  X ",
"X X   .f.f H.D.D.D A Q N.L.I R.} _ #._.` , =  X ",
"X X   .f.f.f.f.f.g.j.W g ( ).^.(._ ' ].;.: 9  X ",
"X X   .f.f [    .m o    .a #.#.T.9 -.$ w }.O  X ",
"X X   .f a  .f  .Q.~  .m  .d.`.] < {.>., 4.+  X ",
"X X   .f.j  .f        .m   Y ;.r.% y.t 5.2.+  X ",
"X X   .f g  .f.m.m.m.m.Q   t 2 3 4.1.2.v 7.q  X ",
"X X   .f.x.4  .f.m.m.Q   r.y e.1 S.p.K.U.8.q  X ",
"X X   .f _ `.i  .f.Q   x l i 5 6.5.6.M.N b q  X ",
"X X   .f._ | d  .f.m   k.<.w.5 L.k.Y p G.Z 0  X ",
"X X   .f ].;.:  .f.Q   P I 7 c v.9.V.Z . C 0  X ",
"X X   .f.} w.O  .f.m  .J.c.n.F.s T !.@.S.F.e  X ",
"X X   .f.> 8  .f.m.Q.Q   J.G m M.A.S O S.. q  X ",
"X X   .f 4  .f.m.m.m.m.Q  .)./ W.h. ...K $ 0  X ",
"X X   .f.2  .f        .m   /.{. .H @ $.7.7.C  X ",
"X X   .f z  .f   X.'  .m   B.| @.X.7.7.7.7 *  X ",
"X X   .f.M F    .B Z     B.- &.7.7.7.7.7.7 q  X ",
"X X    U h 1 F.[.* V E %.0.= P P P : :.u.R.P  X ",
"X X                                         X X "
};
