/* XPM */
static char *noname[] = {
/* width height ncolors chars_per_pixel */
"24 24 59 1",
/* colors */
"  c #000000",
". c #696867",
"X c #636261",
"o c #5B5A59",
"O c #908F8D",
"+ c #D4D4D3",
"@ c #BDBCB9",
"# c #BBBAB7",
"$ c #B9B8B5",
"% c #B7B6B3",
"& c #AFAEAB",
"* c #A6A4A2",
"= c #DFDFDD",
"- c #959491",
"; c #A4A4A3",
": c #D5D5D3",
"> c #D4D3D2",
", c #D3D3D1",
"< c #B9B7B4",
"1 c #8E8E8D",
"2 c #C0BFBE",
"3 c #888887",
"4 c #7E7E7D",
"5 c #A4A3A2",
"6 c #D9D8D6",
"7 c #D0CECD",
"8 c #949392",
"9 c #C5C4C2",
"0 c #B8B8B5",
"q c #C4C4C4",
"w c #A3A2A0",
"e c #A2A09F",
"r c #D7D5D3",
"t c #DFDFDE",
"y c #BBB9B7",
"u c #BAB9B6",
"i c #6F6E6C",
"p c #636260",
"a c #CACAC8",
"s c #C5C4C3",
"d c #C4C4C2",
"f c #FFFFFF",
"g c #B5B4B3",
"h c #757574",
"j c #737372",
"k c #DEDDDB",
"l c #A1A09F",
"z c #D4D3D1",
"x c #D2D1CF",
"c c #9C9C9A",
"v c #D0CFCD",
"b c #868481",
"n c #D9D9D9",
"m c #C6C5C3",
"M c #8D8C8B",
"N c #C0BFBD",
"B c #B4B3B1",
"V c #A8A7A5",
"C c None",
/* pixels */
"CCCCCCCCCCCCCCCCCCCCCCCC",
"CCCCCCCCCCCCCCCCCCCCCCCC",
"CCCCCCCCCCCCCCCCCCCCCCCC",
"CCCCCCCCCCCCCCCCCCCCCCCC",
"CCCCC    fCCCCCCC nCCCCC",
"CCCCC j3 fCCCCCC  fCCCCC",
"CCCCC 4; fCCCCC . fCCCCC",
"CCCCC 1g fCCCC oc fCCCCC",
"CCCCC 82 fCCC XOs fCCCCC",
"CCCCC 5a fCC i-N, fCCCCC",
"CCCCC l7 fC pMBN, fCCCCC",
"CCCCC 5a f hbu<9z fCCCCC",
"CCCCC l7 fC e*@m> fCCCCC",
"CCCCC &x fCC w%v+ fCCCCC",
"CCCCC 0> fCCC V:= fCCCCC",
"CCCCC #r fCCCf dt fCCCCC",
"CCCCC y6 fCCCCf z fCCCCC",
"CCCCC $k fCCCCCC  fCCCCC",
"CCCCC    fCCCCCCf fCCCCC",
"CCCCCfffffCCCCCCCCCCCCCC",
"CCCCCCCCCCCCCCCCCCCCCCCC",
"CCCCCCCCCCCCCCCCCCCCCCCC",
"CCCCCCCCCCCCCCCCCCCCCCCC",
"CCCCCCCCCCCCCCCCCCCCCCCC"
};
