/* XPM */
static char *noname[] = {
/* width height ncolors chars_per_pixel */
"24 24 204 2",
/* colors */
"   c #000000",
" . c #D6D6D2",
" X c #D4D4D0",
" o c #DDDDBB",
" O c #D2D2CE",
" + c #ADADAD",
" @ c #313130",
" # c #DBDBB9",
" $ c #D0D0CC",
" % c #CECECA",
" & c #CCCCC8",
" * c #A1A1A1",
" = c #9F9F9F",
" - c #DFDFC0",
" ; c #ECECDA",
" : c #9D9D9D",
" > c #D6D6AD",
" , c #ECECDD",
" < c #898989",
" 1 c #BEBEBD",
" 2 c #858585",
" 3 c #BABAB9",
" 4 c #E5E5CC",
" 5 c #EDEDEB",
" 6 c #B6B6B5",
" 7 c #B4B4B3",
" 8 c #E7E7E5",
" 9 c #E5E5E3",
" 0 c #E3E3E1",
" q c #E1E1DF",
" w c #D7D7BE",
" e c #DFDFDD",
" r c #DDDDDB",
" t c #DBDBD9",
" y c #A4A4A3",
" u c #A2A2A1",
" i c #D7D7D5",
" p c #A0A09F",
" a c #D5D5D3",
" s c #E9E9D6",
" d c #5D5D5D",
" f c #D5D5AB",
" g c #E0E0C3",
" h c #8E8E8D",
" j c #C3C3C1",
" k c #BDBDBB",
" l c #FEFEFE",
" z c #FCFCFC",
" x c #FAFAFA",
" c c #B1B1AF",
" v c #F6F6F6",
" b c #F4F4F4",
" n c #787877",
" m c #E0E0DD",
" M c #DEDEDB",
" N c #A7A7A5",
" B c #DCDCD9",
" V c #DADAD7",
" C c #393939",
" Z c #D8D8D5",
" A c #D6D6D3",
" S c #9F9F9D",
" D c #D4D4D1",
" F c #D2D2CF",
" G c #E2E2E2",
" H c #D0D0CD",
" J c #E0E0E0",
" K c #A7A77D",
" L c #DEDEDE",
" P c #CCCCC9",
" I c #959593",
" U c #C6C6C3",
" Y c #EEEEDD",
" T c #DFDFC1",
" R c #8B8B89",
" E c #D0D0D0",
" W c #BCBCB9",
" Q c #6B6B4F",
" ! c #E3E3C8",
" ~ c #FBFBFA",
" ^ c #B4B4B1",
" / c #C4C4C4",
" ( c #F9F9F8",
" ) c #111111",
" _ c #F7F7F6",
" ` c #F5F5F4",
" ' c #F3F3F2",
" ] c #DADAB5",
" [ c #EFEFEE",
" { c #A8A8A5",
" } c #EDEDEC",
" | c #C4C49C",
".  c #B4B4B4",
".. c #E7E7E6",
".X c #A0A09D",
".o c #D5D5D1",
".O c #D3D3CF",
".+ c #E3E3E2",
".@ c #5D5D44",
".# c #DCDCBA",
".$ c #D1D1CD",
".% c #CFCFCB",
".& c #CDCDC9",
".* c #A8A8A8",
".= c #DDDDDC",
".- c #A4A4A4",
".; c #A2A2A2",
".: c #E0E0C1",
".> c #DEDEBF",
"., c #EBEBD9",
".< c #D3D3D2",
".1 c #CBCBCA",
".2 c #A0A078",
".3 c #E2E2C6",
".4 c #4B4B49",
".5 c #C3C3C2",
".6 c #BBBBBA",
".7 c #CCCC99",
".8 c #848484",
".9 c #ECECEA",
".0 c #EAEAE8",
".q c #9F9F9B",
".w c #E4E4E2",
".e c #E2E2E0",
".r c #767676",
".t c #E0E0DE",
".y c #999995",
".u c #E6E6D0",
".i c #CCCCC7",
".p c #A7A7A6",
".a c #DCDCDA",
".s c #DADAD8",
".d c #A3A3A2",
".f c #D8D8D6",
".g c #A1A1A0",
".h c #8D8D89",
".j c #DDDDBD",
".k c #EAEAD7",
".l c #BEBE8E",
".z c #CECECC",
".x c #979796",
".c c #959594",
".v c #A3A37A",
".b c #83837F",
".n c #939392",
".m c #9F9F76",
".M c #C6C6C4",
".N c #D4D4AA",
".B c #E1E1C4",
".V c #C4C4C2",
".C c #24241B",
".Z c #FFFFFF",
".A c #FDFDFD",
".S c #B4B487",
".D c #B6B6B4",
".F c #FBFBFB",
".G c #B4B4B2",
".H c #F9F9F9",
".J c #F7F7F7",
".K c #E1E1DE",
".L c #404040",
".P c #DFDFDC",
".I c #DDDDDA",
".U c #A6A6A4",
".Y c #DBDBD8",
".T c #A4A4A2",
".R c #D9D9D6",
".E c #383838",
".W c #A2A2A0",
".Q c #D7D7D4",
".! c #D5D5D2",
".~ c #DEDEBD",
".^ c #EBEBD7",
"./ c #D3D3D0",
".( c #9C9C9A",
".) c #E9E9D5",
"._ c #D1D1CE",
".` c #A8A87E",
".' c #CFCFCC",
".] c #CDCDCA",
".[ c #5F5F5E",
".{ c #5D5D5C",
".} c #D3D3A8",
".| c #D5D5D5",
"X  c #BBBBB8",
"X. c #6A6A4E",
"XX c #848482",
"Xo c #B9B9B6",
"XO c #D7D7AF",
"X+ c #828280",
"X@ c #161616",
"X# c #E2E2C7",
"X$ c #EDEDDF",
"X% c #FAFAF9",
"X& c #C3C3C3",
"X* c #C1C1C1",
"X= c #F6F6F5",
"X- c #F4F4F3",
"X; c #F2F2F1",
"X: c #F0F0EF",
"X> c #EEEEED",
"X, c #E4E4CC",
"X< c #3B3B3A",
"X1 c None",
/* pixels */
"X1X1X1X1X1X1X1X1X1X1X1X1X1X1X1X1X1X1X1X1X1X1X1X1",
"X1X1                                    X1X1X1X1",
"X1X1  .Z.Z.Z.Z.Z.Z.Z.Z.Z.Z.Z.Z.Z.Z.Z JX*  X1X1X1",
"X1X1  .Z.Z.Z.Z.Z.Z.Z.Z.Z.Z.Z.Z.A.FX%X&.F.*  X1X1",
"X1X1  .Z.Z.Z.Z.Z.Z.Z.Z.Z.Z.A z x ( _ +.r d.L  X1",
"X1X1  .Z.Z.Z.Z.Z.Z.Z.Z l z ~.H.JX= b G 2.4X@  X1",
"X1X1  .Z.Z                   v ` 'X;X:X> 5 :  X1",
"X1X1  .Z.Z   s ;.).3.B ].S  X-X;X: [ }.9.0 y  X1",
"X1      .|   , ! - g.j f.v   3    .[.  8...-  X1",
"   Q.)XO  .CX$X,.k.u >.7.7.C   4X# QX<.s q.;  X1",
"   w.~.> o o Y.^ T >.} f.#.# #.:.7.m.E.5 i *  X1",
"  X..l.`   ).,.N >.7.7.7 K    .7.S.@ CXo a.d  X1",
"X1      .8  .~.7.7.7.7.7 K   n     @X+ j.f.d  X1",
"X1X1   /.-   | K K K K K.2   h.p.T.UX .z.R p  X1",
"X1X1   L.1                  .x.V j k P H.! u  X1",
"X1X1  .J.=.f 1 N.c I.c.c.(.n { F i./ D X D u  X1",
"X1X1   l.+ e.<.M.6 k 6.G W.D U.Q Z A.o./._.g  X1",
"X1X1  .Z 8.w 0 e t.a.f.!.! D.! A.!./ O H.% p  X1",
"X1X1  .Z 9 0.e.t.P r B V Z.Q.! X F.$.%.] & u  X1",
"X1X1  .Z.e.K e M B.s.R.Q . D.O.$.' % &.i.i.W  X1",
"X1X1  .Z m M.a.Y.R Z A.o./._ $ %.&.i.i.i.i =  X1",
"X1X1  .Z.I.Y V Z A.!./ O H.%.&.i.i.i.i.i.i p  X1",
"X1X1   E c 7 ^.X.X S S.q.y.h R R R < <.bXX.{  X1",
"X1X1                                        X1X1"
};
