/* XPM */
static char * stock_insert_wave_xpm[] = {
"24 24 125 2",
"  	c None",
". 	c #000000",
"+ 	c #D3D3D3",
"@ 	c #F6F6F6",
"# 	c #FFFFFF",
"$ 	c #F9F9F9",
"% 	c #DADADA",
"& 	c #585858",
"* 	c #C7C7C7",
"= 	c #D1D1D1",
"- 	c #D6D6D6",
"; 	c #FEFEFE",
"> 	c #FDFDFD",
", 	c #C0C0C0",
"' 	c #E1E1E1",
") 	c #F0F0F0",
"! 	c #9B9B9B",
"~ 	c #FCFCFB",
"{ 	c #FBFBFB",
"] 	c #AFAFAE",
"^ 	c #E9E9E9",
"/ 	c #DFDFDF",
"( 	c #8F8F8F",
"_ 	c #CBCBCA",
": 	c #FAFAF9",
"< 	c #F9F9F8",
"[ 	c #A4A4A3",
"} 	c #F4F4F4",
"| 	c #CFCFCF",
"1 	c #A2A2A2",
"2 	c #6B6B4F",
"3 	c #EDEDDF",
"4 	c #F8F8F7",
"5 	c #F8F7F6",
"6 	c #9E9E9E",
"7 	c #E4E4CC",
"8 	c #959594",
"9 	c #F7F6F5",
"0 	c #F6F6F4",
"a 	c #F4F3F2",
"b 	c #DEDDDC",
"c 	c #D3D2D0",
"d 	c #B7B7B5",
"e 	c #9F9E9D",
"f 	c #706F6F",
"g 	c #65625A",
"h 	c #F5F4F3",
"i 	c #F2F2F0",
"j 	c #D8D8D6",
"k 	c #CDCCCA",
"l 	c #AFAEAC",
"m 	c #88847B",
"n 	c #BBBBBA",
"o 	c #F3F3F1",
"p 	c #CCCC99",
"q 	c #D5D4D3",
"r 	c #C4C3C2",
"s 	c #8F8A81",
"t 	c #F5F5F3",
"u 	c #D3D3A8",
"v 	c #F1F1EF",
"w 	c #F1F0EE",
"x 	c #A7A77D",
"y 	c #E4E3E0",
"z 	c #D2D1CE",
"A 	c #8D887E",
"B 	c #DEDEBF",
"C 	c #F3F2F1",
"D 	c #F0EFED",
"E 	c #E2E1DE",
"F 	c #E1DFDC",
"G 	c #979288",
"H 	c #A49E93",
"I 	c #F0F0EE",
"J 	c #EFEFED",
"K 	c #E2E0DD",
"L 	c #E1E0DC",
"M 	c #E0DFDB",
"N 	c #A19C90",
"O 	c #EDEDEB",
"P 	c #EDECEA",
"Q 	c #ECEBE9",
"R 	c #DFDEDA",
"S 	c #DEDDD9",
"T 	c #DDDCD8",
"U 	c #A19B90",
"V 	c #EBEAE8",
"W 	c #E9E8E6",
"X 	c #E8E7E5",
"Y 	c #DCDBD7",
"Z 	c #E7E6E3",
"` 	c #E6E5E2",
" .	c #E5E4E1",
"..	c #DBD9D5",
"+.	c #D9D7D3",
"@.	c #9F998D",
"#.	c #E3E2DF",
"$.	c #E3E2DE",
"%.	c #E4E2DF",
"&.	c #E4E3DF",
"*.	c #E2E1DD",
"=.	c #DDDBD7",
"-.	c #DCDAD6",
";.	c #D8D6D2",
">.	c #9E988D",
",.	c #EDEDED",
"'.	c #E1E0DD",
").	c #E0DEDA",
"!.	c #D8D6D1",
"~.	c #D7D5D1",
"{.	c #9D978B",
"].	c #E1DFDB",
"^.	c #DEDCD8",
"/.	c #D7D6D1",
"(.	c #D5D3CE",
"_.	c #9B958A",
":.	c #999891",
"<.	c #A39E92",
"[.	c #A39D92",
"}.	c #A39D91",
"|.	c #A29C90",
"1.	c #A19B8F",
"2.	c #9D978C",
"3.	c #9B968A",
"4.	c #676359",
"                                                ",
"      . . . . . . . . . . . . .                 ",
"    . + @ # # # # # # # # $ % & .               ",
"    . @ # # # # # # # # # # * = - .             ",
"    . # # # # # # # ; # ; > , ' ) ! .           ",
"    . # # # # # ; > ~ > ~ { ] ^ # / ( .         ",
"    . . . . . _ ~ { : { : < [ ) # } | 1 .       ",
"    . 2 3 3 2 . : < 4 < 4 5 6 . . . . . . .     ",
"  . 2 3 . . 7 2 8 5 9 5 9 0 a b c d e f g .     ",
"  . 3 . 8 8 . 7 . 8 h 0 h a i . _ j k l m .     ",
". 2 3 . 8 n . 7 2 . o a o i . p . _ q r s .     ",
". 3 . 8 n t n . u . 8 i v w . x . 8 y z A .     ",
". B . 8 a C i . 2 u . w D . x 2 . 8 E F G .     ",
"  . . n a C i n . p . _ D . x . 8 n E F H .     ",
"    . _ I J J _ . 2 p . . x 2 8 n K L M N .     ",
"    . # O P Q Q n . 2 p x 2 . 8 _ R S T U .     ",
"    . # V W W X _ n . . . . 8 n M S T Y U .     ",
"    . # Z ` ` `  .n 8 8 8 8 n M S Y ..+.@..     ",
"    . $ y #.$.%.&.*.n n n _ L S =.-.+.;.>..     ",
"    . ,.'.F L M *.M L M L R ).=.-.+.!.~.{..     ",
"    . = ].).R S M S ).S ).^.^.-.-.;./.(._..     ",
"    . :.<.H [.}.[.N |.N |.1.U @.@.2.2.3.4..     ",
"      . . . . . . . . . . . . . . . . . .       ",
"                                                "};
