/* XPM */
static char * stock_sequence_xpm[] = {
"24 24 138 2",
"  	c None",
". 	c #000000",
"+ 	c #D3D3D3",
"@ 	c #F6F6F6",
"# 	c #FFFFFF",
"$ 	c #F9F9F9",
"% 	c #DADADA",
"& 	c #585858",
"* 	c #C7C7C7",
"= 	c #D1D1D1",
"- 	c #D6D6D6",
"; 	c #FEFEFE",
"> 	c #FDFDFD",
", 	c #C0C0C0",
"' 	c #E1E1E1",
") 	c #F0F0F0",
"! 	c #9B9B9B",
"~ 	c #FCFCFB",
"{ 	c #FBFBFB",
"] 	c #AFAFAE",
"^ 	c #E9E9E9",
"/ 	c #DFDFDF",
"( 	c #8F8F8F",
"_ 	c #F4F4F4",
": 	c #CFCFCF",
"< 	c #A2A2A2",
"[ 	c #ECECDD",
"} 	c #E8E8D8",
"| 	c #E5E5D4",
"1 	c #E2E2D0",
"2 	c #DFDFCC",
"3 	c #DCDCC7",
"4 	c #D8D8C3",
"5 	c #D5D5BF",
"6 	c #D2D2BB",
"7 	c #CFCFB6",
"8 	c #9F9F76",
"9 	c #E7E7D6",
"0 	c #E3E3D2",
"a 	c #DDDDC9",
"b 	c #DADAC5",
"c 	c #D3D3BC",
"d 	c #D0D0B8",
"e 	c #CDCDB4",
"f 	c #CACAB0",
"g 	c #959593",
"h 	c #D3D2D0",
"i 	c #B7B7B5",
"j 	c #9F9E9D",
"k 	c #706F6F",
"l 	c #65625A",
"m 	c #E5E5D3",
"n 	c #DEDECB",
"o 	c #DBDBC7",
"p 	c #D5D5BE",
"q 	c #CBCBB1",
"r 	c #A3A37A",
"s 	c #C5C5A9",
"t 	c #BDBDBB",
"u 	c #D8D8D6",
"v 	c #CDCCCA",
"w 	c #AFAEAC",
"x 	c #88847B",
"y 	c #E3E3D1",
"z 	c #D9D9C4",
"A 	c #C6C6AB",
"B 	c #6B6B4F",
"C 	c #C0C0A2",
"D 	c #E9E8E6",
"E 	c #D5D4D3",
"F 	c #C4C3C2",
"G 	c #8F8A81",
"H 	c #DEDECA",
"I 	c #D4D4BE",
"J 	c #C1C1A4",
"K 	c #BBBB9C",
"L 	c #E5E4E2",
"M 	c #E4E3E0",
"N 	c #D2D1CE",
"O 	c #8D887E",
"P 	c #CFCFB7",
"Q 	c #C6C6AA",
"R 	c #BCBC9D",
"S 	c #B6B695",
"T 	c #E2E1DE",
"U 	c #E1DFDC",
"V 	c #979288",
"W 	c #D4D4BD",
"X 	c #B7B797",
"Y 	c #B1B18E",
"Z 	c #A49E93",
"` 	c #C5C5AA",
" .	c #B2B290",
"..	c #ACAC88",
"+.	c #E2E0DD",
"@.	c #E1E0DC",
"#.	c #E0DFDB",
"$.	c #A19C90",
"%.	c #C0C0A3",
"&.	c #B7B796",
"*.	c #ADAD89",
"=.	c #A7A781",
"-.	c #DFDEDA",
";.	c #DEDDD9",
">.	c #DDDCD8",
",.	c #A19B90",
"'.	c #A8A883",
").	c #A2A27A",
"!.	c #DCDBD7",
"~.	c #A3A37C",
"{.	c #DBD9D5",
"].	c #D9D7D3",
"^.	c #9F998D",
"/.	c #B8B897",
"(.	c #B5B593",
"_.	c #B2B28F",
":.	c #AEAE8B",
"<.	c #ABAB86",
"[.	c #A8A882",
"}.	c #A5A57E",
"|.	c #DCDAD6",
"1.	c #D8D6D2",
"2.	c #9E988D",
"3.	c #D8D6D1",
"4.	c #D7D5D1",
"5.	c #9D978B",
"6.	c #D7D6D1",
"7.	c #D5D3CE",
"8.	c #9B958A",
"9.	c #999891",
"0.	c #A39E92",
"a.	c #A39D92",
"b.	c #A39D91",
"c.	c #A29C90",
"d.	c #A19B8F",
"e.	c #9D978C",
"f.	c #9B968A",
"g.	c #676359",
"                                                ",
"      . . . . . . . . . . . . .                 ",
"    . + @ # # # # # # # # $ % & .               ",
"    . @ # # # # # # # # # # * = - .             ",
"    . # # # # # # # ; # ; > , ' ) ! .           ",
"    . # # # # # ; > ~ > ~ { ] ^ # / ( .         ",
"  . . . . . . . . . . . . . . ) # _ : < .       ",
"  . [ [ [ } | 1 2 3 4 5 6 7 . . . . . . . .     ",
"  . [ 8 9 0 8 a b 8 c d e f . g h i j k l .     ",
"  . } m 8 n o 8 p 8 8 q r s . g t u v w x .     ",
"  . y 8 a z 8 8 d 8 r A B C . g t D E F G .     ",
"  . H r 8 I 8 8 q B r J r K . g t L M N O .     ",
"  . z B r P 8 B Q r B R B S . g t M T U V .     ",
"  . W B 8 f B B J B r X B Y . g t M T U Z .     ",
"  . 7 B r ` r B R r B  .B ... g t +.@.#.$..     ",
"  . f r B %.B r &.B r *.B =.. g t -.;.>.,..     ",
"  . s B r K r B  .B B '.B ).. g t ;.>.!.,..     ",
"  . C 8 B &.B 8 *.B B ~.B 8 . g t !.{.].^..     ",
"  . K /.(._.:.<.[.}.).8 8 8 . g t |.].1.2..     ",
"  . . . . . . . . . . . . . . g t ].3.4.5..     ",
"    . g g g g g g g g g g g g t |.1.6.7.8..     ",
"    . 9.0.Z a.b.a.$.c.$.c.d.,.^.^.e.e.f.g..     ",
"      . . . . . . . . . . . . . . . . . .       ",
"                                                "};
