/* XPM */
static char *noname[] = {
/* width height ncolors chars_per_pixel */
"24 24 29 1",
/* colors */
"  c #000000",
". c #BBBAB7",
"X c #D1CFCC",
"o c #A4A4A3",
"O c #D4D3D2",
"+ c #C3C1BE",
"@ c #BFBDBA",
"# c #B5B3B0",
"$ c #C0BFBE",
"% c #AEADA9",
"& c #888887",
"* c #848483",
"= c #7E7E7D",
"- c #A8A7A6",
"; c #A6A5A4",
": c #D9D8D6",
"> c #AFAEAC",
", c #D7D5D3",
"< c #91908E",
"1 c #A6A5A2",
"2 c #CACAC8",
"3 c #B2B0AD",
"4 c #FFFFFF",
"5 c #B5B4B3",
"6 c #737372",
"7 c #DEDDDB",
"8 c #858483",
"9 c #AAA9A7",
"0 c None",
/* pixels */
"000000000000000000000000",
"000000000000000000000000",
"000000000000000000000000",
"000000000000000000000000",
"000000000000000000000000",
"00000             400000",
"00000 6*&&&&&&&&& 400000",
"00000 =-ooooooooo 400000",
"00000 =;555555555 400000",
"00000 89$$$$$$$$$ 400000",
"00000 <>222222222 400000",
"00000 <>222222222 400000",
"00000 1.OOOOOOOOO 400000",
"00000 1.OOOOOOOOO 400000",
"00000 %@,,,,,,,,, 400000",
"00000 3+::::::::: 400000",
"00000 #X777777777 400000",
"00000             400000",
"000004444444444444400000",
"000000000000000000000000",
"000000000000000000000000",
"000000000000000000000000",
"000000000000000000000000",
"000000000000000000000000"
};
