/* XPM */
static char *noname[] = {
/* width height ncolors chars_per_pixel */
"24 24 220 2",
/* colors */
"   c #000000",
" . c #DC7A68",
" X c #B9D3E7",
" o c #778999",
" O c #A1BED6",
" + c #605F68",
" @ c #C3D7F4",
" # c #4A6070",
" $ c #EEC1B8",
" % c #9B968E",
" & c #424A51",
" * c #364A59",
" = c #B6D3E7",
" - c #5A666F",
" ; c #CE7567",
" : c #67655E",
" > c #737277",
" , c #546069",
" < c #83A0B8",
" 1 c #CC7C72",
" 2 c #819EB6",
" 3 c #C2655B",
" 4 c #39424B",
" 5 c #B0D1E4",
" 6 c #E3E1DE",
" 7 c #E2E1DD",
" 8 c #DFDDDA",
" 9 c #D48173",
" 0 c #C8817B",
" q c #D9D7D4",
" w c #BBD6E8",
" e c #C7C5BF",
" r c #CB7C74",
" t c #E9B8AF",
" y c #8AAAC5",
" u c #CF7264",
" i c #383F43",
" p c #737373",
" a c #8CA7BD",
" s c #AAC9E1",
" d c #8AA5BB",
" f c #547086",
" g c #6F6F6F",
" h c #525B63",
" j c #B8B5B0",
" k c #696969",
" l c #6C8CA4",
" z c #B7D2E7",
" x c #B5CAE5",
" c c #F0C6BC",
" v c #636363",
" b c #3B5360",
" n c #475158",
" m c #313E49",
" M c #7494AF",
" N c #7294AD",
" B c #626F79",
" V c #97938C",
" C c #5B6E7C",
" Z c #E0DEDA",
" A c #486173",
" S c #EDECEA",
" D c #AAC6DD",
" F c #CBC8C2",
" G c #EBEAE8",
" H c #BF6B64",
" J c #C9C6C0",
" K c #E9E8E6",
" L c #CB7D73",
" P c #C7C4BE",
" I c #CB7B73",
" U c #D6D4D0",
" Y c #7F9DB6",
" T c #9BC3D8",
" R c #7B9BB2",
" E c #BACCDC",
" W c #87ABC1",
" Q c #CFCEC9",
" ! c #567187",
" ~ c #414A4E",
" ^ c #BAD5E9",
" / c #E9B9B1",
" ( c #4E697F",
" ) c #AACEE3",
" _ c #65859C",
" ` c #A8C8E1",
" ' c #88A4BB",
" ] c #7091AA",
" [ c #515C64",
" { c #86A2B9",
" } c #C16A62",
" | c #D47D6E",
".  c #C4675B",
".. c #CC7A70",
".X c #698BA3",
".o c #6F777E",
".O c #CECECE",
".+ c #F0EFEC",
".@ c #524F47",
".# c #465E70",
".$ c #EEBCB2",
".% c #4D4942",
".& c #B8B3AB",
".* c #CC7C73",
".= c #E6E5E2",
".- c #EEBEB5",
".; c #82A0BB",
".: c #686670",
".> c #7DA0B6",
"., c #0C0D0F",
".< c #4A5359",
".1 c #7998B2",
".2 c #3A515D",
".3 c #566168",
".4 c #AAC9E2",
".5 c #4E5E6A",
".6 c #4D6C80",
".7 c #A3C3DB",
".8 c #3E474D",
".9 c #28323E",
".0 c #5C6971",
".q c #C36459",
".w c #4B555D",
".e c #F1C8BE",
".r c #728FA4",
".t c #829FB7",
".y c #E7E6E2",
".u c #E1E0DC",
".i c #D1CEC9",
".p c #4A6176",
".a c #C0BCB5",
".s c #A4B9CB",
".d c #DC8171",
".f c #DCDAD7",
".g c #6B6F72",
".h c #BA6C6A",
".j c #B9D3E6",
".k c #7A7A7A",
".l c #4B657A",
".z c #626169",
".x c #AECCE5",
".c c #88A7C3",
".v c #383E43",
".b c #363C41",
".n c #E0826E",
".m c #84A3BF",
".M c #E0806E",
".N c #ABC4E2",
".B c #EDBFB6",
".V c #6F8FA7",
".C c #A4A099",
".Z c #4D697F",
".A c #DA7868",
".S c #C36558",
".D c #B3CDE3",
".F c #7897B3",
".G c #EFC5BB",
".H c #434C54",
".J c #4F6F84",
".K c #455C6D",
".L c #A4C4DE",
".P c #5F6C76",
".I c #6B8DA6",
".U c #E08D7E",
".Y c #708AA1",
".T c #4E6879",
".R c #4D6678",
".E c #54738C",
".W c #B3CADC",
".Q c #FFFFFF",
".! c #DDDBD7",
".~ c #CCC9C3",
".^ c #EAE9E7",
"./ c #526C80",
".( c #D7D5D1",
".) c #7A8E9A",
"._ c #CB7A73",
".` c #7E9CB5",
".' c #C2BFB9",
".] c #486276",
".[ c #735B5B",
".{ c #85A4BF",
".} c #87A3B7",
".| c #7FA2B9",
"X  c #40474D",
"X. c #58636B",
"XX c #57636A",
"Xo c #CE7265",
"XO c #454F55",
"X+ c #A9C9E2",
"X@ c #E5BFBA",
"X# c #87A3BA",
"X$ c #85A1B8",
"X% c #4F5B62",
"X& c #83A1B6",
"X* c #6C8EA6",
"X= c #A1C1DA",
"X- c #34464E",
"X; c #6E899E",
"X: c #75757A",
"X> c #CDCDCD",
"X, c #A9CDE5",
"X< c #7192AE",
"X1 c #514E46",
"X2 c #6F90AC",
"X3 c #4F4C44",
"X4 c #DAD8D3",
"X5 c #C5C5C5",
"X6 c #CAC6C0",
"X7 c #4E4A43",
"X8 c #364853",
"X9 c #D7D4D0",
"X0 c #4F697C",
"Xq c #E9B7AD",
"Xw c #BFBFBF",
"Xe c #E4E2E0",
"Xr c #373C40",
"Xt c #CDCAC6",
"Xy c #33383C",
"Xu c None",
/* pixels */
"XuXuXuXuXuXuXuXuXuXuXuXuXuXuXuXuXuXuXuXuXuXuXuXu",
"XuXu                                      XuXuXu",
"Xu   @X,X:.G.e c.$.- $.BXq tXq t /X@ >.D O  XuXu",
"Xu   w y +.U.n.M ..d.A 9 |Xo u ;. .S.z.} !  XuXu",
"Xu   ^.c.: 0 r._ I 1 L H.. }.* 3.q.h.: 2 f  XuXu",
"Xu   = W p.Q.Q.Q.Q.Q.Q.Q.Q.Q.Q.Q.Q.Q p <./  XuXu",
"Xu   X.{ p.Q.Q.Q.Q.Q.Q.Q.Q.Q.Q.Q.Q.Q p <X0  XuXu",
"Xu  .j.m p.OX>X>X>X>X>X>X>X>X>X>X>Xw p '.]  XuXu",
"Xu   z.; v.Q.Q.Q.Q.Q.Q.Q.Q.Q.Q.Q.Q.Q p '.#  XuXu",
"Xu   x.| p.Q.Q.Q.Q.Q.Q.Q.Q.Q.Q.Q.Q.Q pX#.K  XuXu",
"Xu  .x.> p.OX>X>X>X>X>X>X>X>X>X>X>X5 pX# ,  XuXu",
"Xu   5X&.[.Q.Q.Q.Q.Q.Q.Q.Q.Q.Q.Q.Q.Q p < [  XuXu",
"Xu   ) R.).k p p p p p.g g p p p p k.o {.2  XuXu",
"Xu  X+ M 2 < {.t Y.`.t.1 {X$X$X#.t a < d *  XuXu",
"Xu  .N NX2X< ~ & h B.P.0 -X.XX h b 4.F.sX8  XuXu",
"Xu  .4 ].V.< V 8 6 G G.^ 8 Q J %.3.l.E DX-  XuXu",
"Xu   sX* lX X4.y :.@.@ q e.a.& Q.H.Z.J.W m  XuXu",
"Xu   `.I.rX  7.+ :.@.@Xt.'.aX6.f.w (.J E m  XuXu",
"Xu  .L.X.Y.v Z GX1X3X3 P.a F.u K n.T.6.7 i  XuXu",
"Xu   oX; _XyX9 UX7.%.%.a.i.= S.=XO A.RX=Xr  XuXu",
"XuXu.,.5 CX%.C.a.&.~.~.(Xe.^.! j.8.p # T.b  XuXu",
"XuXuXu                                .9  XuXuXu",
"XuXuXuXuXuXuXuXuXuXuXuXuXuXuXuXuXuXuXuXuXuXuXuXu",
"XuXuXuXuXuXuXuXuXuXuXuXuXuXuXuXuXuXuXuXuXuXuXuXu"
};
