/* XPM */
static char *noname[] = {
/* width height ncolors chars_per_pixel */
"24 24 37 1",
/* colors */
"  c #000000",
". c #D0CECC",
"X c #999996",
"o c #C7C6C3",
"O c #908F8D",
"+ c #C3C2BF",
"@ c #8C8B89",
"# c #BDBCB9",
"$ c #868583",
"% c #B6B4B2",
"& c #A9A8A5",
"* c #A7A6A3",
"= c #A5A4A1",
"- c #C5C3C0",
"; c #B9B7B4",
": c #C7C6C4",
"> c #828180",
", c #727170",
"< c #6C6B6A",
"1 c #A1A09E",
"2 c #9D9C9A",
"3 c #D2D1CE",
"4 c #8F8E8C",
"5 c #898886",
"6 c #BAB9B6",
"7 c #B5B3B1",
"8 c #B0AFAC",
"9 c #A19F9D",
"0 c #BCBAB7",
"q c #B9B6B4",
"w c #FFFFFF",
"e c #7B7B7A",
"r c #D8D7D5",
"t c #7F7E7D",
"y c #B4B3B1",
"u c #7D7C7B",
"i c None",
/* pixels */
"iiiiiiiiiiiiiiiiiiiiiiii",
"iiiiiiiiiiiiiiiiiiiiiiii",
"iiiiiiiiiiiiiiiiiiiiiiii",
"iiiiiiiiiiiiiiiiiiiiiiii",
"iiiiiiiii iiiiiiiiiiiiii",
"iiiiiiiii  iiiiiiiiiiiii",
"iiiiiiiii , iiiiiiiiiiii",
"iiiiiiiii e< iiiiiiiiiii",
"iiiiiiiii tXu iiiiiiiiii",
"iiiiiiiii >28O iiiiiiiii",
"iiiiiiiii $1y%= iiiiiiii",
"iiiiiiiii 5=;60+ wiiiiii",
"iiiiiiiii @&#-. wiiiiiii",
"iiiiiiiii 47o3 wiiiiiiii",
"iiiiiiiii 2qr wiiiiiiiii",
"iiiiiiiii 9: wiiiiiiiiii",
"iiiiiiiii * wiiiiiiiiiii",
"iiiiiiiii  wiiiiiiiiiiii",
"iiiiiiiii wiiiiiiiiiiiii",
"iiiiiiiiiwiiiiiiiiiiiiii",
"iiiiiiiiiiiiiiiiiiiiiiii",
"iiiiiiiiiiiiiiiiiiiiiiii",
"iiiiiiiiiiiiiiiiiiiiiiii",
"iiiiiiiiiiiiiiiiiiiiiiii"
};
