/* XPM */
static char *noname[] = {
/* width height ncolors chars_per_pixel */
"24 24 217 2",
/* colors */
"   c #000000",
" . c #333428",
" X c #323227",
" o c #C0C3AF",
" O c #797C66",
" + c #33331E",
" @ c #2C2C21",
" # c #AAAD96",
" $ c #2A2A1F",
" % c #92957B",
" & c #33342B",
" * c #38381C",
" = c #AFB494",
" - c #ACB091",
" ; c #B8BBAA",
" : c #494B3D",
" > c #A6AA8B",
" , c #CACFAB",
" < c #B3B5A5",
" 1 c #E7EAD8",
" 2 c #C8CDA9",
" 3 c #C6CBA7",
" 4 c #D4D6C2",
" 5 c #E3E6D4",
" 6 c #C4C9A5",
" 7 c #080907",
" 8 c #3E3F32",
" 9 c #050504",
" 0 c #A6A998",
" q c #010100",
" w c #80836C",
" e c #7D8169",
" r c #333327",
" t c #313125",
" y c #2F2F23",
" u c #9B9E83",
" i c #3D3F34",
" p c #94987C",
" a c #B6BB9A",
" s c #B5B999",
" d c #B3B797",
" f c #212115",
" g c #2A2A00",
" h c #E2E5CF",
" j c #2E2F25",
" k c #BABCAB",
" l c #DADCD1",
" z c #CFD4AF",
" x c #CDD2AD",
" c c #B6B8A7",
" v c #6F735E",
" b c #C9CEA9",
" n c #6A6D59",
" m c #C6CAA6",
" M c #747470",
" N c #888C73",
" B c #060604",
" V c #040402",
" C c #A5A98C",
" Z c #A3A78A",
" A c #21211B",
" S c #A1A588",
" D c #9FA386",
" F c #9DA184",
" G c #242400",
" H c #9A9D81",
" J c #999D80",
" K c #BDC2A0",
" L c #BCC09F",
" P c #BBC09E",
" I c #B8BC9B",
" U c #333429",
" Y c #323428",
" T c #E3E5D9",
" R c #B3B896",
" E c #323228",
" W c #303026",
" Q c #2D3223",
" ! c #71745F",
" ~ c #1F1F1F",
" ^ c #8F9379",
" / c #8C8F76",
" ( c #8B8F75",
" ) c #8A8D74",
" _ c #191919",
" ` c #ABB091",
" ' c #151515",
" ] c #A8AC8E",
" [ c #A6AA8C",
" { c #A5AA8B",
" } c #D7DAC6",
" | c #A4A88A",
".  c #A3A889",
".. c #D5D8C4",
".X c #0D0D0D",
".o c #C6CBA8",
".O c #202019",
".+ c #0B0B0B",
".@ c #434538",
".# c #C4C9A6",
".$ c #080908",
".% c #C2C7A4",
".& c #C1C5A3",
".* c #C0C5A2",
".= c #DADCCC",
".- c #010101",
".; c #D7DAC9",
".: c #80836D",
".> c #E5E6DA",
"., c #9E9F91",
".< c #333328",
".1 c #9D9F90",
".2 c #F4F4EC",
".3 c #313126",
".4 c #9DA286",
".5 c #F2F2EA",
".6 c #151611",
".7 c #95987E",
".8 c #2A2A15",
".9 c #333300",
".0 c #303328",
".q c #2F3327",
".w c #E4E7D2",
".e c #B0B595",
".r c #2F2F27",
".t c #AFB394",
".y c #2D2D25",
".u c #ADB192",
".i c #4F5243",
".p c #DCDCD4",
".a c #AAAF8F",
".s c #DDDFCB",
".d c #1F1F00",
".f c #A9AD8E",
".g c #DADDC8",
".h c #E8EBD9",
".j c #C9CEAA",
".k c #C7CCA8",
".l c #A2A587",
".z c #070806",
".x c #060605",
".c c #020201",
".v c #82866E",
".b c #D8DBC9",
".n c #23251E",
".m c #7D8069",
".M c #9FA387",
".N c #303024",
".B c #9DA185",
".V c #1A1B15",
".C c #9B9F83",
".Z c #878A76",
".A c #9A9D82",
".S c #999D81",
".D c #BABDA8",
".F c #CACDBB",
".G c #969B7E",
".H c #96997E",
".J c #B9BE9D",
".K c #C1C3B2",
".L c #313228",
".P c #B2B696",
".I c #B0B494",
".U c #717460",
".Y c #CED3AE",
".T c #28281F",
".R c #CCD1AC",
".E c #CACFAA",
".W c #8A8D75",
".Q c #898D74",
".! c #070705",
".~ c #868971",
".^ c #858970",
"./ c #EAECDD",
".( c #81856C",
".) c #81836C",
"._ c #23241D",
".` c #20201A",
".' c #333326",
".] c #9FA286",
".[ c #2B2C28",
".{ c #181812",
".} c #BCC19F",
".| c #ECECE2",
"X  c #BABF9D",
"X. c #C7CAB7",
"XX c #95987C",
"Xo c #B9BD9C",
"XO c #B6BB99",
"X+ c #323328",
"X@ c #555847",
"X# c #797D67",
"X$ c #2F2F25",
"X% c #535445",
"X& c #151612",
"X* c #727560",
"X= c #71735F",
"X- c #B5B8A5",
"X; c #0C0C09",
"X: c #1C1C1C",
"X> c #E0E0D9",
"X, c #8A8E74",
"X< c #161616",
"X1 c #A9AD8F",
"X2 c #84866E",
"X3 c #EBEDDD",
"X4 c #A7AB8D",
"X5 c #A4A98A",
"X6 c #A3A789",
"X7 c #A2A588",
"X8 c #C3C8A5",
"X9 c #C2C6A4",
"X0 c #DEE1D0",
"Xq c #BFC4A1",
"Xw c #BEC2A0",
"Xe c #2A2A1C",
"Xr c None",
/* pixels */
"XrXrXrXrXrXrXrXrXrXrXrXrXrXrXrXrXrXrXrXrXrXrXrXr",
"XrXrXrXrXrXrXrXrXrXrXrXrXrXrXrXrXrXrXrXrXrXrXrXr",
"XrXrXrXrXrXrXrXrXrXrXrXrXrXrXrXrXrXrXrXrXrXrXrXr",
"XrXr              XrXrXrXrXrXrXrXrXrXrXrXrXrXrXr",
"Xr qX-.w.w.w.w.w.Z &XrXrXrXrXrXrXrXrXrXrXrXrXrXr",
"Xr.+ h z z z.Y.Y.P.yXrXrXrXrXrXrXrXrXrXrXrXrXrXr",
"._.1 h m 6 3.k b bX@.VXrXrXrXrXrXrXrXrXrXrXrXrXr",
".` 4Xw R.e dXO P.}.( 8.-              XrXrXrXrXr",
"._.g =.aX6 >.a.fX4 | S # < ; k.KX..F.D  XrXrXrXr",
"X;.s.G.4XX.H H J.H F {X5. X7X6.l D u.Q  XrXrXrXr",
"  .bX2 eX&                              .-.-XrXr",
"  .;X# iX>X3.h.h.h.h.h.h.h.h.h.h.h 1 5X0.= l.[Xr",
"   } v.X.2 z z z z z z z z z.Y.Y.Y ,.oX9 P `.nXr",
"   } :.p./ x.Y.Y x.Y x x x x x.R.E.oX9X  s.).zXr",
"  ..X<.5 ,.E ,.E.j.E.j.k 2 2.o.#.& L a.I.BX%X;Xr",
"   c M.|X8.%.%X9.*X9Xq K.* KXo.J d.eX1 Z.:.cXrXr",
"   0.p I I s d d.e.e.t.t.t - ] [.].C.A.W.i.!XrXr",
"  .,.>.uX1 [ C Z Z S.M.].C.S.7 % / ) )X=.$XrXrXr",
"   T o p ^ (X, N N.^.~.v w.m OX*.U ! n.@ 7XrXrXr",
"Xr                                     9XrXrXrXr",
"XrXrXrXrXrXrXrXrXrXrXrXrXrXrXrXrXrXrXrXrXrXrXrXr",
"XrXrXrXrXrXrXrXrXrXrXrXrXrXrXrXrXrXrXrXrXrXrXrXr",
"XrXrXrXrXrXrXrXrXrXrXrXrXrXrXrXrXrXrXrXrXrXrXrXr",
"XrXrXrXrXrXrXrXrXrXrXrXrXrXrXrXrXrXrXrXrXrXrXrXr"
};
