/* XPM */
static char *noname[] = {
/* width height ncolors chars_per_pixel */
"24 24 30 1",
/* colors */
"  c #000000",
". c #BBBAB7",
"X c #D1CFCC",
"o c #A4A4A3",
"O c #D4D3D2",
"+ c #C3C1BE",
"@ c #BFBDBA",
"# c #B5B3B0",
"$ c #C0BFBE",
"% c #AEADA9",
"& c #888887",
"* c #848483",
"= c #7E7E7D",
"- c #A8A7A6",
"; c #A6A5A4",
": c #D9D8D6",
"> c #AFAEAC",
", c #D7D5D3",
"< c #91908E",
"1 c #A6A5A2",
"2 c #CACAC8",
"3 c #B2B0AD",
"4 c #FFFFFF",
"5 c #B5B4B3",
"6 c #F3F3F3",
"7 c #737372",
"8 c #DEDDDB",
"9 c #858483",
"0 c #AAA9A7",
"q c None",
/* pixels */
"qqqqqqqqqqqqqqqqqqqqqqqq",
"qqqqqqqqqqqqqqqqqqqqqqqq",
"qqqqqqqqqqqqqqqqqqqqqqqq",
"qqqqqqqqqqqqqqqqqqqqqqqq",
"qqqqqqqqqqqqqqqqqqqqqqqq",
"qqqqqq     4     4qqqqqq",
"qqqqqq 7*& 4 7*& 4qqqqqq",
"qqqqqq =-o 4 =-o 4qqqqqq",
"qqqqqq =;5 4 =;5 4qqqqqq",
"qqqqqq 90$ 4 90$ 4qqqqqq",
"qqqqqq <>2 4 <>2 4qqqqqq",
"qqqqqq <>2 4 <>2 4qqqqqq",
"qqqqqq <>2 4 <>2 4qqqqqq",
"qqqqqq 1.O 4 1.O 4qqqqqq",
"qqqqqq 1.O 4 1.O 4qqqqqq",
"qqqqqq %@, 4 %@, 4qqqqqq",
"qqqqqq 3+: 4 3+: 4qqqqqq",
"qqqqqq #X8 4 #X8 4qqqqqq",
"qqqqqq     4     4qqqqqq",
"qqqqqq444446444444qqqqqq",
"qqqqqqqqqqqqqqqqqqqqqqqq",
"qqqqqqqqqqqqqqqqqqqqqqqq",
"qqqqqqqqqqqqqqqqqqqqqqqq",
"qqqqqqqqqqqqqqqqqqqqqqqq"
};
