/* XPM */
static char *noname[] = {
/* width height ncolors chars_per_pixel */
"24 24 45 1",
/* colors */
"  c #000000",
". c #D0CECC",
"X c #999996",
"o c #C7C6C3",
"O c #908F8D",
"+ c #C3C2BF",
"@ c #8C8B89",
"# c #BDBCB9",
"$ c #868583",
"% c #B9B8B5",
"& c #B6B4B2",
"* c #A9A8A5",
"= c #A7A6A3",
"- c #A5A4A1",
"; c #737373",
": c #A4A4A3",
"> c #C5C3C0",
", c #B9B7B4",
"< c #888887",
"1 c #D9D8D6",
"2 c #C7C6C4",
"3 c #828180",
"4 c #C2C2C2",
"5 c #727170",
"6 c #6C6B6A",
"7 c #A1A09E",
"8 c #9D9C9A",
"9 c #D2D1CE",
"0 c #8F8E8C",
"q c #898886",
"w c #BAB9B6",
"e c #B5B3B1",
"r c #B0AFAC",
"t c #A19F9D",
"y c #BCBAB7",
"u c #B9B6B4",
"i c #FFFFFF",
"p c #7B7B7A",
"a c #737372",
"s c #DEDDDB",
"d c #D8D7D5",
"f c #7F7E7D",
"g c #B4B3B1",
"h c #7D7C7B",
"j c None",
/* pixels */
"jjjjjjjjjjjjjjjjjjjjjjjj",
"jjjjjjjjjjjjjjjjjjjjjjjj",
"jjjjjjjjjjjjjjjjjjjjjjjj",
"jjjjjjjjjjjjjjjjjjjjjjjj",
"jjjj jjjjjjjj jjjjjjjjjj",
"jjjj  jjjjjjj  jjjjjjjjj",
"jjjj 5 jjjjjj 5 jjjjjjjj",
"jjjj p6 jjjjj p6 jjjjjjj",
"jjjj fXh jjjj fXh jjjjjj",
"jjjj 38rO jjj 38rO jjjjj",
"jjjj $7g&- jj $7g&- jjjj",
"jjjj q-,wy+ ; q-,wy+ 4jj",
"jjjj @*#>. ij @*#>. ijjj",
"jjjj 0eo9 ijj 0eo9 ijjjj",
"jjjj 8ud ijjj 8ud ijjjjj",
"jjjj t2 ijjjj t2 ijjjjjj",
"jjjj = ijjjjj = ijjjjjjj",
"jjjj  ijjjjjj  ijjjjjjjj",
"jjjj ijjjjjjj ijjjjjjjjj",
"jjjjijjjjjjjjijjjjjjjjjj",
"jjjjjjjjjjjjjjjjjjjjjjjj",
"jjjjjjjjjjjjjjjjjjjjjjjj",
"jjjjjjjjjjjjjjjjjjjjjjjj",
"jjjjjjjjjjjjjjjjjjjjjjjj"
};
