/* XPM */
static char *noname[] = {
/* width height ncolors chars_per_pixel */
"24 24 60 1",
/* colors */
"  c #000000",
". c #D0CECC",
"X c #999996",
"o c #C7C6C3",
"O c #908F8D",
"+ c #C3C2BF",
"@ c #8C8B89",
"# c #BDBCB9",
"$ c #868583",
"% c #BBBAB7",
"& c #B9B8B5",
"* c #B6B4B2",
"= c #AFAEAB",
"- c #A9A8A5",
"; c #A7A6A3",
": c #A5A4A1",
"> c #A4A4A3",
", c #C5C3C0",
"< c #D4D3D2",
"1 c #B9B7B4",
"2 c #8E8E8D",
"3 c #C0BFBE",
"4 c #888887",
"5 c #7E7E7D",
"6 c #A4A3A2",
"7 c #D9D8D6",
"8 c #D0CECD",
"9 c #949392",
"0 c #C7C6C4",
"q c #B8B8B5",
"w c #828180",
"e c #C2C2C2",
"r c #727170",
"t c #6C6B6A",
"y c #D7D5D3",
"u c #A1A09E",
"i c #9D9C9A",
"p c #D2D1CE",
"a c #8F8E8C",
"s c #898886",
"d c #BBB9B7",
"f c #BAB9B6",
"g c #B5B3B1",
"h c #B0AFAC",
"j c #A19F9D",
"k c #BCBAB7",
"l c #CACAC8",
"z c #B9B6B4",
"x c #FFFFFF",
"c c #B5B4B3",
"v c #7B7B7A",
"b c #737372",
"n c #DEDDDB",
"m c #D8D7D5",
"M c #A1A09F",
"N c #D2D1CF",
"B c #7F7E7D",
"V c #B4B3B1",
"C c #7D7C7B",
"Z c None",
/* pixels */
"ZZZZZZZZZZZZZZZZZZZZZZZZ",
"ZZZZZZZZZZZZZZZZZZZZZZZZ",
"ZZZZZZZZZZZZZZZZZZZZZZZZ",
"ZZZZZZZZZZZZZZZZZZZZZZZZ",
"ZZZZZZ ZZZZZZZZ    xZZZZ",
"ZZZZZZ  ZZZZZZZ b4 xZZZZ",
"ZZZZZZ r ZZZZZZ 5> xZZZZ",
"ZZZZZZ vt ZZZZZ 2c xZZZZ",
"ZZZZZZ BXC ZZZZ 93 xZZZZ",
"ZZZZZZ wihO ZZZ 6l xZZZZ",
"ZZZZZZ $uV*: ZZ M8 xZZZZ",
"ZZZZZZ s:1fk+ e 6l xZZZZ",
"ZZZZZZ @-#,. xZ M8 xZZZZ",
"ZZZZZZ agop xZZ =N xZZZZ",
"ZZZZZZ izm xZZZ q< xZZZZ",
"ZZZZZZ j0 xZZZZ %y xZZZZ",
"ZZZZZZ ; xZZZZZ d7 xZZZZ",
"ZZZZZZ  xZZZZZZ &n xZZZZ",
"ZZZZZZ xZZZZZZZ    xZZZZ",
"ZZZZZZxZZZZZZZZxxxxxZZZZ",
"ZZZZZZZZZZZZZZZZZZZZZZZZ",
"ZZZZZZZZZZZZZZZZZZZZZZZZ",
"ZZZZZZZZZZZZZZZZZZZZZZZZ",
"ZZZZZZZZZZZZZZZZZZZZZZZZ"
};
